<svg role="img" aria-hidden="true" width="35" height="35" fill="none" xmlns="http://www.w3.org/2000/svg"><path d="M17.5 1.382C8.598 1.382 1.382 8.598 1.382 17.5c0 8.902 7.216 16.118 16.118 16.118 8.902 0 16.118-7.216 16.118-16.118H35C35 27.165 27.165 35 17.5 35S0 27.165 0 17.5 7.835 0 17.5 0 35 7.835 35 17.5h-1.382c0-8.902-7.216-16.118-16.118-16.118Z" fill="#CD136A"/><path d="M16.127 26.163c.25.255.65.275.924.057l.053-.048 8.305-8.144a.692.692 0 0 0 .003-.984l-8.306-8.216a.69.69 0 1 0-.972.982l7.807 7.724-7.805 7.652-.048.052a.692.692 0 0 0 .039.925Z" fill="#fff"/><path d="M24.423 18.23H9.11a.69.69 0 0 1 0-1.382h15.313a.691.691 0 0 1 0 1.382Z" fill="#fff"/></svg>