<svg role="img" aria-hidden="true" xmlns="http://www.w3.org/2000/svg" width="50" height="51" fill="none"><path stroke="#FF6139" stroke-dasharray="2 2" d="M25.977 50.016c.66-.025 1.313-.077 1.959-.152l-.058-.495a24.424 24.424 0 0 0 1.9-.3l.096.491c.646-.128 1.283-.28 1.91-.456l-.135-.481c.62-.175 1.23-.373 1.83-.594l.171.469c.617-.228 1.222-.48 1.815-.753l-.21-.453a24.44 24.44 0 0 0 1.715-.876l.243.436c.572-.321 1.13-.664 1.674-1.027l-.278-.414a24.576 24.576 0 0 0 1.556-1.133l.309.392c.514-.405 1.01-.832 1.49-1.276l-.336-.366c.47-.436.925-.89 1.36-1.36l.367.338c.444-.48.87-.977 1.275-1.49l-.39-.311c.396-.503.775-1.022 1.132-1.556l.414.278c.364-.543.706-1.1 1.026-1.673l-.433-.244c.313-.558.605-1.13.875-1.714l.452.21c.274-.592.525-1.197.753-1.814l-.468-.173c.221-.599.42-1.21.594-1.83l.481.137c.177-.627.328-1.264.456-1.91l-.489-.097c.124-.625.224-1.26.299-1.9l.494.058c.076-.645.127-1.298.152-1.957l-.497-.02a24.872 24.872 0 0 0 0-1.942l.498-.02c-.026-.67-.08-1.334-.158-1.99l-.495.059a24.504 24.504 0 0 0-.308-1.933l.49-.098a24.848 24.848 0 0 0-.474-1.939l-.48.137a24.31 24.31 0 0 0-.614-1.857l.468-.176a24.854 24.854 0 0 0-.778-1.838l-.451.212c-.279-.592-.58-1.171-.904-1.736l.43-.246a25.002 25.002 0 0 0-1.058-1.692l-.412.281a24.582 24.582 0 0 0-1.168-1.57l.386-.312a25.104 25.104 0 0 0-1.315-1.5l-.36.341a24.62 24.62 0 0 0-1.402-1.365l.332-.37a25.135 25.135 0 0 0-1.536-1.274l-.302.394a24.534 24.534 0 0 0-1.6-1.125l.268-.417c-.558-.36-1.13-.7-1.718-1.017l-.236.44A24.423 24.423 0 0 0 35.713 3h-.001c-.16-.078-.32-.154-.48-.228l.208-.454a24.06 24.06 0 0 0-1-.432l-.188.463-.497-.196c-.349-.134-.7-.26-1.055-.377l.157-.474c-.72-.24-1.451-.447-2.197-.62l-.112.485a23.858 23.858 0 0 0-2.2-.406l.067-.494a24.9 24.9 0 0 0-2.274-.204l-.02.498a25.45 25.45 0 0 0-2.263.002l-.023-.499h-.001c-.783.036-1.557.111-2.32.219l.07.493c-.76.107-1.508.25-2.243.425l-.116-.486c-.76.181-1.508.396-2.24.644l.16.473c-.361.122-.719.253-1.073.391l-.778.32-.198-.457c-.527.228-1.045.473-1.553.735l.23.443c-.5.258-.99.534-1.468.824l-.26-.425c-.49.297-.97.611-1.438.941l.289.406c-.46.324-.907.664-1.342 1.018l-.316-.388c-.444.362-.875.74-1.294 1.13l.341.364c-.205.192-.407.387-.605.585h-.001c-.227.227-.45.458-.667.694l-.366-.338c-.445.48-.871.976-1.277 1.49l.392.309a24.568 24.568 0 0 0-1.133 1.554l-.415-.277a24.973 24.973 0 0 0-1.026 1.674l.434.242a24.38 24.38 0 0 0-.875 1.713l-.453-.208a24.807 24.807 0 0 0-.754 1.812l.47.172c-.221.599-.42 1.21-.595 1.83l-.481-.134a24.788 24.788 0 0 0-.456 1.908l.49.096a24.423 24.423 0 0 0-.299 1.9l-.496-.057a25.164 25.164 0 0 0-.151 1.957l.498.018c-.007.16-.011.32-.014.48l-.005.483c0 .146.002.292.005.437l-.5.01-.001.002c.007.3.024.598.04.895l.497-.029.03.442c.01.165.023.33.037.494l-.498.042c.028.335.062.669.105 1l.497-.064c.02.163.043.324.067.486l.001.001c.025.164.05.327.08.49l-.493.087c.06.335.127.668.2.999l.488-.108a24.316 24.316 0 0 0 .353 1.419l-.482.135c.136.488.287.97.452 1.445l.15.421.47-.173c.22.604.466 1.196.732 1.777l-.454.209c.273.596.57 1.18.888 1.749l.437-.245c.313.561.648 1.108 1.003 1.64l-.417.278c.364.544.746 1.075 1.15 1.588l.394-.31c.397.505.812.993 1.246 1.465l-.369.339c.443.48.905.944 1.384 1.39l.341-.367c.117.109.236.216.355.323l.362.318c.274.236.554.465.839.689l-.309.394c.58.456 1.181.886 1.8 1.29l.273-.418c.606.394 1.23.762 1.87 1.103l-.235.44c.65.347 1.318.665 2.001.954l.194-.46c.664.28 1.343.532 2.036.754l-.153.475c.7.225 1.413.42 2.138.582l.11-.487c.7.157 1.414.285 2.137.38l-.066.496c.726.096 1.462.162 2.207.194l.022-.5c.36.016.722.025 1.086.025h.382c.193-.003.386-.008.578-.015v.015h.247l-.238.238.008.245Z"/><path fill="#FF6139" d="M25.001 45.748a20.611 20.611 0 0 1-13.486-4.997 20.717 20.717 0 0 1-6.664-10.917 20.178 20.178 0 0 1-.327-1.656 20.066 20.066 0 0 1-.178-1.655c-.035-.49-.059-.985-.059-1.485 0-5.721 2.32-10.897 6.07-14.642a20.69 20.69 0 0 1 14.644-6.072c2.665 0 5.103.486 7.403 1.366.563.216 1.116.452 1.655.717 6.902 3.36 11.657 10.44 11.657 18.63 0 11.44-9.277 20.715-20.718 20.715l.003-.004Z"/><path stroke="#fff" stroke-linecap="round" stroke-linejoin="round" stroke-width="2" d="m32.665 26.487 1.891-6.9-6.98-1.913"/><path stroke="#fff" stroke-linecap="round" stroke-width="2" d="m33.661 20.036-17.321 10"/></svg>