<svg role="img" aria-hidden="true" xmlns="http://www.w3.org/2000/svg" width="50" height="50" fill="none"><path stroke="#FF6139" stroke-dasharray="2 2" d="M25.977 49.98c.66-.026 1.313-.077 1.959-.153l-.058-.495a24.424 24.424 0 0 0 1.9-.299l.096.49a24.79 24.79 0 0 0 1.91-.456l-.135-.481c.62-.175 1.23-.373 1.83-.594l.171.469c.617-.228 1.222-.48 1.815-.753l-.21-.453a24.44 24.44 0 0 0 1.715-.875l.243.435c.572-.32 1.13-.663 1.674-1.027l-.278-.414a24.576 24.576 0 0 0 1.556-1.133l.309.393c.514-.406 1.01-.833 1.49-1.277l-.336-.366c.47-.435.925-.89 1.36-1.36l.367.339c.444-.48.87-.978 1.275-1.492l-.39-.31c.396-.503.775-1.022 1.132-1.556l.414.279c.364-.543.706-1.102 1.026-1.673l-.433-.244c.313-.558.605-1.13.875-1.714l.452.21a24.87 24.87 0 0 0 .753-1.815l-.468-.173c.221-.599.42-1.209.594-1.829l.481.136v.001a24.86 24.86 0 0 0 .456-1.911l-.489-.097c.124-.625.224-1.259.299-1.9l.494.058c.076-.645.127-1.297.152-1.957l-.497-.02a24.876 24.876 0 0 0 0-1.942l.498-.02c-.026-.67-.08-1.333-.158-1.99l-.495.06a24.504 24.504 0 0 0-.308-1.933l.49-.099a24.837 24.837 0 0 0-.474-1.938l-.48.136a24.31 24.31 0 0 0-.614-1.856l.468-.177a24.854 24.854 0 0 0-.778-1.838l-.451.212c-.279-.592-.58-1.17-.904-1.735l.43-.246a25.002 25.002 0 0 0-1.058-1.693l-.412.281a24.586 24.586 0 0 0-1.168-1.569l.386-.312a25.104 25.104 0 0 0-1.315-1.501l-.36.342a24.62 24.62 0 0 0-1.402-1.366l.332-.37a25.135 25.135 0 0 0-1.536-1.273l-.302.393a24.534 24.534 0 0 0-1.6-1.125l.268-.417c-.558-.36-1.13-.7-1.718-1.016l-.236.44a24.44 24.44 0 0 0-.871-.447l-.001-.001c-.16-.078-.32-.154-.48-.228l.208-.454a24.06 24.06 0 0 0-1-.431l-.188.462-.497-.196c-.349-.133-.7-.259-1.055-.377l.157-.473c-.72-.24-1.451-.447-2.197-.621l-.112.486a23.858 23.858 0 0 0-2.2-.406l.067-.495a24.9 24.9 0 0 0-2.274-.204l-.02.498a25.45 25.45 0 0 0-2.263.002l-.023-.499h-.001c-.783.037-1.557.112-2.32.22l.07.492c-.76.107-1.508.25-2.243.425L19.225.68c-.76.18-1.508.395-2.24.643l.16.473c-.361.122-.719.253-1.073.392l-.778.32-.198-.457c-.527.228-1.045.472-1.553.734l.23.444c-.5.258-.99.533-1.468.824l-.26-.426c-.49.298-.97.612-1.438.941l.289.407c-.46.323-.907.663-1.342 1.017l-.316-.387c-.444.361-.875.739-1.294 1.13l.341.364c-.205.191-.407.386-.605.585h-.001c-.227.226-.45.458-.667.693l-.366-.338c-.445.48-.871.977-1.277 1.49l.392.309a24.574 24.574 0 0 0-1.133 1.555l-.415-.278a24.973 24.973 0 0 0-1.026 1.674l.434.242a24.38 24.38 0 0 0-.875 1.713l-.453-.208a24.789 24.789 0 0 0-.754 1.813l.47.172c-.221.598-.42 1.209-.595 1.829l-.481-.134a24.81 24.81 0 0 0-.456 1.908l.49.097a24.428 24.428 0 0 0-.299 1.9l-.496-.058A25.162 25.162 0 0 0 .02 24.02l.498.018c-.007.16-.011.32-.014.48L.5 25c0 .146.002.292.005.438l-.5.01-.001.001c.007.3.024.599.04.896l.497-.03.03.442c.01.165.023.33.037.494l-.498.042c.028.336.062.67.105 1l.497-.063c.02.162.043.324.067.485l.001.002c.025.163.05.326.08.49l-.493.086c.06.335.127.668.2.999l.488-.107a24.364 24.364 0 0 0 .353 1.419l-.482.134c.136.488.287.97.452 1.446l.15.42.47-.172c.22.603.466 1.196.732 1.776l-.454.209v.001c.273.596.57 1.179.888 1.748l.437-.244c.313.56.648 1.107 1.003 1.64l-.417.277a25.08 25.08 0 0 0 1.15 1.589v-.001l.394-.309c.397.504.812.993 1.246 1.464l-.369.339c.443.481.905.944 1.384 1.39l.341-.367c.117.11.236.217.355.324l.362.317c.274.236.554.466.839.69l-.309.393c.58.456 1.181.886 1.8 1.29l.273-.418c.606.395 1.23.763 1.87 1.104l-.235.44c.65.346 1.318.664 2.001.953l.194-.46c.664.28 1.343.532 2.036.754l-.153.476c.7.224 1.413.419 2.138.582l.11-.488c.7.158 1.414.285 2.137.381l-.066.495c.726.097 1.462.162 2.207.195l.022-.5c.36.015.722.024 1.086.024h.382c.193-.003.386-.007.578-.015v.015h.247l-.238.238.008.245Z"/><path class="circle" fill="#fff" d="M25.001 45.712a20.611 20.611 0 0 1-13.486-4.998 20.717 20.717 0 0 1-6.664-10.917 20.178 20.178 0 0 1-.327-1.655 20.07 20.07 0 0 1-.178-1.656c-.035-.49-.059-.984-.059-1.485 0-5.721 2.32-10.896 6.07-14.642a20.69 20.69 0 0 1 14.644-6.072c2.665 0 5.103.487 7.403 1.367.563.215 1.116.452 1.655.716 6.902 3.36 11.657 10.44 11.657 18.631 0 11.439-9.277 20.714-20.718 20.714l.003-.003Z"/><path class="arrow" stroke="#FF6139" stroke-linecap="round" stroke-width="2" d="M33.12 25.001H16.883M24.739 32.119V17.883"/></svg>