<svg viewBox="0 0 586.65 586.67" xmlns="http://www.w3.org/2000/svg">
<path d="m573.97 512.69-130.65-130.65c28.38-40.71 43.34-88.48 43.34-138.71 0-65-25.31-126.1-71.27-172.06-45.95-45.96-107.06-71.27-172.06-71.27s-126.1 25.31-172.06 71.27-71.27 107.07-71.27 172.06 25.31 126.1 71.27 172.06 107.07 71.27 172.06 71.27c50.23 0 98-14.96 138.71-43.34l130.65 130.65c8.18 8.18 19.07 12.69 30.64 12.69s22.46-4.51 30.64-12.69c16.89-16.9 16.89-44.39 0-61.28zm-330.64-112.69c-86.39 0-156.67-70.28-156.67-156.67s70.29-156.66 156.67-156.66 156.67 70.28 156.67 156.67-70.28 156.67-156.67 156.67z"/>
</svg>
