<svg role="img" aria-hidden="true" xmlns="http://www.w3.org/2000/svg" viewBox="0 0 50 50" fill="none"><path stroke="#FF6139" d="M25 49.496h.311C38.698 49.327 49.5 38.424 49.5 25c0-9.687-5.623-18.062-13.787-22.036l-.001-.001a23.611 23.611 0 0 0-1.957-.847A24.17 24.17 0 0 0 25 .5c-2.954 0-5.782.531-8.406 1.49l-.522.197A24.527 24.527 0 0 0 7.68 7.683h-.001A24.395 24.395 0 0 0 .5 25c0 .588.029 1.172.07 1.757.046.662.111 1.316.21 1.958v.002c.098.657.234 1.305.387 1.956A24.505 24.505 0 0 0 9.05 43.585 24.376 24.376 0 0 0 25 49.496Z"/><path fill="#FF6139" d="M25.001 45.712a20.611 20.611 0 0 1-13.486-4.998 20.717 20.717 0 0 1-6.664-10.917 20.178 20.178 0 0 1-.327-1.655 20.07 20.07 0 0 1-.178-1.656c-.035-.49-.059-.984-.059-1.485 0-5.721 2.32-10.896 6.07-14.642a20.69 20.69 0 0 1 14.644-6.072c2.665 0 5.103.487 7.403 1.367.563.215 1.116.452 1.655.716 6.902 3.36 11.657 10.44 11.657 18.631 0 11.439-9.277 20.714-20.718 20.714l.003-.003Z"/><path fill="#fff" d="M24.74 33.12a1 1 0 0 0 1-1V26h7.38a1 1 0 1 0 0-2h-7.38v-6.117a1 1 0 0 0-2 0V24h-6.856a1 1 0 1 0 0 2h6.855v6.118a1 1 0 0 0 1 1Z"/></svg>