<svg role="img" aria-hidden="true" xmlns="http://www.w3.org/2000/svg" width="199" height="41" fill="none"><path fill="#fff" d="M198.824 30.16h-3.331v-7.308c0-1.044-.182-1.806-.547-2.286-.364-.48-.869-.72-1.516-.72-.447 0-.903.115-1.367.347a4.205 4.205 0 0 0-1.218.97 3.648 3.648 0 0 0-.795 1.391v7.606h-3.33V17.136h3.007v2.41a4.72 4.72 0 0 1 1.268-1.416 5.364 5.364 0 0 1 1.764-.895 7.034 7.034 0 0 1 2.138-.323c.812 0 1.474.15 1.988.448a2.8 2.8 0 0 1 1.193 1.168c.282.48.472 1.027.572 1.64.116.613.174 1.235.174 1.864v8.128ZM177.854 30.408c-1.06 0-2.013-.174-2.858-.522a6.459 6.459 0 0 1-2.162-1.491 6.78 6.78 0 0 1-1.342-2.162 7.015 7.015 0 0 1-.472-2.56c0-.912.157-1.773.472-2.585a6.78 6.78 0 0 1 1.342-2.163 6.168 6.168 0 0 1 2.162-1.466c.845-.364 1.798-.547 2.858-.547 1.061 0 2.005.183 2.834.547a6.168 6.168 0 0 1 2.162 1.466 6.23 6.23 0 0 1 1.342 2.163c.315.812.472 1.673.472 2.585 0 .894-.157 1.748-.472 2.56a6.23 6.23 0 0 1-1.342 2.162 6.2 6.2 0 0 1-2.137 1.491c-.845.348-1.798.522-2.859.522Zm-3.405-6.735c0 .762.15 1.441.448 2.038.298.58.704 1.035 1.218 1.367a3.136 3.136 0 0 0 1.739.497c.63 0 1.202-.166 1.715-.497.514-.348.92-.812 1.218-1.392.315-.597.472-1.276.472-2.038 0-.746-.157-1.417-.472-2.013-.298-.597-.704-1.06-1.218-1.392a3.095 3.095 0 0 0-1.715-.497c-.646 0-1.226.174-1.739.522-.514.331-.92.795-1.218 1.391-.298.58-.448 1.251-.448 2.014ZM170.345 20.02c-1.011 0-1.914.198-2.709.596-.796.38-1.367.936-1.715 1.665v7.879h-3.331V17.136h3.057v2.784c.464-.895 1.053-1.6 1.765-2.113.712-.513 1.466-.795 2.262-.845h.422c.1 0 .183.009.249.025v3.032ZM155.995 30.16V12.513h3.429V30.16h-3.429ZM134.919 26.307c0-.845.232-1.582.696-2.212.48-.646 1.143-1.143 1.988-1.491.845-.348 1.815-.522 2.908-.522.547 0 1.102.041 1.665.124a5.71 5.71 0 0 1 1.467.398v-.696c0-.829-.249-1.466-.746-1.914-.48-.447-1.201-.67-2.162-.67-.713 0-1.392.123-2.038.372-.646.248-1.326.613-2.038 1.093l-1.069-2.187c.862-.563 1.74-.986 2.635-1.267a9.62 9.62 0 0 1 2.858-.423c1.856 0 3.297.464 4.324 1.392 1.044.928 1.566 2.254 1.566 3.977v4.15c0 .348.058.597.174.746.133.15.34.24.621.273v2.71c-.298.05-.571.09-.82.124-.232.033-.431.05-.596.05-.663 0-1.168-.15-1.516-.448a1.924 1.924 0 0 1-.622-1.093l-.074-.672a5.7 5.7 0 0 1-2.113 1.69 6.01 6.01 0 0 1-2.585.597c-.861 0-1.64-.174-2.336-.522a4.315 4.315 0 0 1-1.615-1.466 3.992 3.992 0 0 1-.572-2.113Zm8.102.671a3.47 3.47 0 0 0 .448-.596c.116-.2.174-.381.174-.547v-1.317a6.184 6.184 0 0 0-1.293-.373c-.464-.1-.903-.15-1.317-.15-.862 0-1.574.191-2.137.572-.547.365-.821.854-.821 1.467 0 .331.092.646.274.944.182.298.447.539.795.72.348.183.762.274 1.243.274a4.1 4.1 0 0 0 1.466-.273c.481-.199.87-.44 1.168-.72ZM125.349 30.234a5.7 5.7 0 0 1-2.386-.497 5.836 5.836 0 0 1-1.864-1.442 6.8 6.8 0 0 1-1.193-2.112 7.554 7.554 0 0 1-.422-2.535c0-.945.149-1.823.447-2.635a6.854 6.854 0 0 1 1.243-2.137 5.568 5.568 0 0 1 1.914-1.442c.745-.348 1.566-.522 2.46-.522 1.011 0 1.897.232 2.66.696a5.656 5.656 0 0 1 1.889 1.814v-2.286h2.907v12.402c0 1.293-.314 2.394-.944 3.306-.613.928-1.466 1.632-2.56 2.112-1.094.497-2.336.746-3.728.746-1.408 0-2.601-.24-3.579-.72a7.113 7.113 0 0 1-2.51-1.99l1.814-1.764a5.178 5.178 0 0 0 1.864 1.442 5.738 5.738 0 0 0 2.411.522c.712 0 1.359-.133 1.939-.398a3.019 3.019 0 0 0 1.416-1.193c.365-.53.547-1.218.547-2.063v-1.64a4.443 4.443 0 0 1-1.839 1.74 5.39 5.39 0 0 1-2.486.596Zm1.119-2.66c.364 0 .712-.057 1.044-.173a3.706 3.706 0 0 0 1.665-1.168c.215-.282.381-.564.497-.846v-3.106a4.01 4.01 0 0 0-.845-1.342 3.571 3.571 0 0 0-1.193-.87 3.016 3.016 0 0 0-1.367-.323 2.97 2.97 0 0 0-1.392.323c-.414.215-.77.522-1.069.92a4.4 4.4 0 0 0-.695 1.292c-.15.464-.224.953-.224 1.466 0 .53.091 1.027.273 1.491.183.464.431.87.746 1.218.331.348.712.622 1.143.82.448.2.92.299 1.417.299ZM105.28 26.307c0-.845.232-1.582.696-2.212.481-.646 1.143-1.143 1.989-1.491.845-.348 1.814-.522 2.907-.522.547 0 1.102.041 1.666.124a5.702 5.702 0 0 1 1.466.398v-.696c0-.829-.249-1.466-.746-1.914-.48-.447-1.201-.67-2.162-.67a5.63 5.63 0 0 0-2.038.372c-.646.248-1.325.613-2.038 1.093l-1.069-2.187c.862-.563 1.74-.986 2.635-1.267a9.62 9.62 0 0 1 2.858-.423c1.856 0 3.297.464 4.325 1.392 1.044.928 1.565 2.254 1.565 3.977v4.15c0 .348.058.597.174.746.133.15.34.24.622.273v2.71c-.298.05-.572.09-.82.124-.232.033-.431.05-.597.05-.663 0-1.168-.15-1.516-.448a1.928 1.928 0 0 1-.621-1.093l-.075-.672a5.688 5.688 0 0 1-2.112 1.69 6.016 6.016 0 0 1-2.585.597c-.862 0-1.641-.174-2.337-.522a4.322 4.322 0 0 1-1.615-1.466 4.001 4.001 0 0 1-.572-2.113Zm8.103.671c.182-.199.331-.398.447-.596.116-.2.174-.381.174-.547v-1.317a6.175 6.175 0 0 0-1.292-.373c-.464-.1-.903-.15-1.318-.15-.861 0-1.574.191-2.137.572-.547.365-.82.854-.82 1.467 0 .331.091.646.273.944.182.298.447.539.795.72.348.183.763.274 1.243.274.497 0 .986-.09 1.467-.273.48-.199.869-.44 1.168-.72ZM103.472 30.16h-3.331v-7.308c0-1.044-.182-1.806-.547-2.286-.364-.48-.87-.72-1.516-.72-.447 0-.903.115-1.367.347a4.194 4.194 0 0 0-1.218.97c-.364.397-.63.86-.795 1.391v7.606h-3.33V17.136h3.007v2.41a4.729 4.729 0 0 1 1.268-1.416 5.375 5.375 0 0 1 1.764-.895 7.03 7.03 0 0 1 2.138-.323c.812 0 1.474.15 1.988.448a2.8 2.8 0 0 1 1.193 1.168c.282.48.472 1.027.572 1.64.116.613.174 1.235.174 1.864v8.128ZM76.394 26.307c0-.845.231-1.582.695-2.212.481-.646 1.144-1.143 1.989-1.491.845-.348 1.814-.522 2.908-.522.546 0 1.102.041 1.665.124a5.703 5.703 0 0 1 1.466.398v-.696c0-.829-.248-1.466-.745-1.914-.48-.447-1.202-.67-2.163-.67-.712 0-1.391.123-2.038.372-.646.248-1.325.613-2.038 1.093l-1.068-2.187c.861-.563 1.74-.986 2.634-1.267a9.623 9.623 0 0 1 2.858-.423c1.856 0 3.298.464 4.325 1.392 1.044.928 1.566 2.254 1.566 3.977v4.15c0 .348.058.597.174.746.132.15.34.24.621.273v2.71c-.298.05-.572.09-.82.124-.232.033-.43.05-.597.05-.662 0-1.168-.15-1.516-.448a1.925 1.925 0 0 1-.621-1.093l-.075-.672a5.693 5.693 0 0 1-2.112 1.69 6.011 6.011 0 0 1-2.585.597c-.862 0-1.64-.174-2.336-.522a4.32 4.32 0 0 1-1.616-1.466 4 4 0 0 1-.571-2.113Zm8.102.671c.182-.199.331-.398.447-.596.116-.2.174-.381.174-.547v-1.317a6.175 6.175 0 0 0-1.292-.373c-.464-.1-.903-.15-1.317-.15-.862 0-1.574.191-2.138.572-.547.365-.82.854-.82 1.467 0 .331.091.646.273.944.183.298.448.539.796.72.348.183.762.274 1.242.274.498 0 .986-.09 1.467-.273.48-.199.87-.44 1.168-.72ZM61.177 27.575l9.842-12.054H61.45v-3.008h13.645v2.585l-9.52 12.054h9.595v3.008H61.177v-2.585ZM18.515 32.397c0-.258.01-.527.033-.84.024-.343.057-.65.1-.94a11.812 11.812 0 0 1 2.868-6.065l13.585-13.763V0H.219v12.029h16.126L0 28.376v10.793h20.662l-.048-.066a11.689 11.689 0 0 1-2.099-6.705Z"/><path fill="#FF6139" d="M30.274 24.031c-2.08 0-3.982.76-5.445 2.019a8.368 8.368 0 0 0-2.823 5.077c-.034.22-.056.444-.072.669a8.331 8.331 0 0 0 2.427 6.513 8.372 8.372 0 0 0 5.913 2.453c1.076 0 2.061-.197 2.99-.553a8.364 8.364 0 0 0 5.375-7.814 8.366 8.366 0 0 0-8.366-8.365l.002.001Z"/></svg>