<svg role="img" aria-hidden="true" xmlns="http://www.w3.org/2000/svg" viewBox="0 0 615 573" fill="none"><mask id="a" width="615" height="573" x="0" y="0" maskUnits="userSpaceOnUse" style="mask-type:alpha"><path fill="#B4B49E" stroke="#B4B49E" d="M1.025 1.369h613v571h-613z"/></mask><g mask="url(#a)"><path fill="#B4B49E" fill-opacity=".2" d="M151.788 427.441c0-7.286.274-14.849.902-23.679.667-9.661 1.608-18.333 2.824-26.529 1.256-8.434 2.982-17.145 5.179-26.569 12.593-53.574 38.642-103.386 74.931-144.408l379.4-387.965v-304.14h-974.256v339.103H91.176l-456.528 460.823v304.258h577.084c-.431-.634-.902-1.227-1.334-1.861-38.328-55.633-58.61-121.006-58.61-188.993v-.04Z"/><path stroke="#B4B49E" stroke-opacity=".35" d="M614.523-485.349v303.436L235.266 205.906l-.008.009-.009.01c-36.342 41.082-62.431 90.968-75.043 144.624v.001c-2.199 9.434-3.929 18.159-5.186 26.609-1.219 8.21-2.161 16.895-2.829 26.568-.628 8.84-.904 16.415-.904 23.714v.039c0 67.024 19.683 131.514 56.913 186.659l1.786 2.619c.222.324.452.638.676.943l.098.134h-575.612V314.282L91.531-146.394l.844-.851h-451.106v-338.104h973.254Z"/><path fill="#B4B49E" fill-opacity=".2" d="M480.222 191.605c-58.1 0-111.219 21.422-152.097 56.9-36.759 31.875-63.593 75.114-75.166 124.293-1.452 6.217-2.746 12.473-3.688 18.848-.941 6.216-1.569 12.512-2.001 18.848-.392 5.583-.666 11.205-.666 16.907 0 65.136 26.166 124.056 68.457 166.701 22.597 22.807 49.784 40.943 80.031 52.901 26.402 10.413 55.08 16.234 85.13 16.234 30.051 0 57.552-5.543 83.483-15.561 6.356-2.455 12.593-5.148 18.674-8.157 77.834-38.25 131.462-118.868 131.462-212.118 0-130.232-104.628-235.836-233.658-235.836l.039.04Z"/><path stroke="#B4B49E" stroke-opacity=".35" d="M481.386 192.068c128.196.654 231.955 105.778 231.955 235.333 0 93.054-53.515 173.501-131.183 211.669h-.001c-6.065 3.002-12.288 5.689-18.632 8.139-25.876 9.997-53.316 15.528-83.302 15.528-29.986 0-58.602-5.808-84.949-16.2-30.18-11.932-57.309-30.028-79.858-52.787-42.201-42.555-68.312-101.349-68.312-166.349 0-5.686.274-11.296.666-16.873v-.001c.43-6.325 1.057-12.606 1.996-18.806v-.002c.938-6.357 2.23-12.598 3.679-18.807 11.549-49.074 38.326-92.222 75.007-124.029 40.791-35.403 93.795-56.778 151.771-56.778h1.199l-.036-.037Z"/></g></svg>